<?xml version="1.0" standalone="no"?>
<!DOCTYPE svg PUBLIC "-//W3C//DTD SVG 20010904//EN"
 "http://www.w3.org/TR/2001/REC-SVG-20010904/DTD/svg10.dtd">
<svg version="1.0" xmlns="http://www.w3.org/2000/svg"
 width="1578.000000pt" height="1578.000000pt" viewBox="0 0 1578.000000 1578.000000"
 preserveAspectRatio="xMidYMid meet">

<g transform="translate(0.000000,1578.000000) scale(0.100000,-0.100000)"
fill="#000000" stroke="none">
<path d="M7453 14820 c-978 -53 -1869 -283 -2728 -705 -916 -450 -1738 -1115
-2376 -1920 -757 -954 -1236 -2058 -1424 -3276 -82 -537 -97 -1208 -39 -1754
167 -1568 842 -3002 1939 -4124 786 -803 1715 -1386 2770 -1736 528 -176 1012
-277 1580 -331 227 -21 777 -29 1010 -15 279 17 455 37 455 49 -1 31 -17 33
-161 18 -583 -61 -1215 -40 -1829 60 -1272 208 -2494 796 -3465 1668 -1253
1126 -2053 2665 -2245 4321 -34 300 -44 473 -44 815 0 416 23 715 84 1100 182
1142 670 2251 1389 3160 1225 1550 3010 2489 4975 2619 203 14 684 14 891 1
1886 -122 3620 -1000 4842 -2451 850 -1009 1397 -2259 1558 -3559 13 -107 30
-265 37 -350 17 -200 17 -856 0 -1050 -80 -929 -301 -1730 -695 -2525 -206
-415 -409 -743 -690 -1115 -60 -79 -111 -150 -114 -156 -6 -17 28 -26 41 -11
53 65 237 314 298 402 676 981 1072 2076 1195 3300 26 258 26 1012 0 1265 -82
805 -260 1484 -572 2190 -340 769 -823 1469 -1434 2080 -364 363 -672 615
-1096 895 -889 587 -1883 954 -2955 1089 -336 43 -877 64 -1197 46z"/>
<path d="M5010 11490 l0 -960 45 -56 c82 -100 115 -196 115 -333 0 -96 0 -96
-94 -47 l-66 35 0 -122 0 -122 58 -2 c33 -1 78 -11 107 -23 50 -22 135 -84
135 -100 0 -5 -25 -18 -55 -29 -60 -23 -157 -28 -213 -12 l-32 10 0 -252 0
-252 74 -38 c41 -21 94 -59 120 -84 42 -43 44 -48 27 -59 -32 -23 -118 -53
-170 -60 l-51 -7 0 -1108 0 -1109 568 0 567 -1 -50 -19 c-317 -124 -640 -396
-817 -688 -185 -303 -263 -605 -262 -1012 1 -541 147 -935 464 -1250 349 -348
855 -505 1506 -470 268 15 443 43 659 105 106 31 322 120 383 159 l42 26 0
865 0 865 -735 0 -735 0 0 -310 0 -310 345 0 345 0 0 -339 0 -339 -37 -15
c-175 -69 -500 -81 -707 -27 -177 47 -288 111 -417 239 -146 146 -220 289
-271 523 -29 138 -32 465 -5 600 49 246 144 424 306 580 158 153 297 227 513
275 115 25 455 25 613 -1 212 -34 392 -89 544 -165 35 -18 65 -30 68 -28 2 3
-28 168 -67 368 -68 347 -73 368 -116 450 -59 116 -128 294 -158 409 -46 181
-59 296 -53 499 5 201 22 303 78 477 l30 93 -21 79 c-49 193 -141 415 -229
550 l-41 62 -157 -126 c-396 -319 -687 -450 -884 -399 -90 23 -123 45 -367
244 -259 211 -303 243 -376 277 -57 26 -74 41 -33 29 43 -13 244 -139 412
-259 259 -184 290 -204 334 -220 49 -16 51 -10 12 28 -16 16 -47 62 -68 104
-36 71 -38 80 -38 166 0 90 24 198 48 213 16 10 100 -88 132 -153 41 -86 46
-202 13 -301 l-24 -73 22 0 c86 0 253 69 396 163 96 63 194 144 365 300 l122
112 -55 51 c-90 85 -235 144 -352 144 -29 0 -99 -10 -155 -22 -144 -31 -355
-31 -482 0 -197 48 -373 136 -570 285 -83 62 -321 295 -311 304 2 3 47 -33 98
-79 283 -254 542 -391 823 -435 124 -19 242 -12 380 21 55 13 129 29 165 36
112 19 103 7 97 129 -13 272 -150 519 -382 691 -62 46 -70 58 -22 34 116 -60
258 -188 337 -303 88 -131 148 -291 170 -461 7 -47 13 -87 15 -89 2 -2 39 -15
82 -30 237 -79 438 -291 613 -644 l68 -138 92 133 c94 134 138 189 264 331 38
43 67 79 65 80 -128 92 -295 223 -364 285 -287 256 -481 567 -530 851 -20 114
-19 197 6 337 29 168 30 154 -16 168 -248 76 -486 330 -690 737 -70 138 -127
269 -123 281 2 5 23 -28 47 -74 238 -450 507 -743 750 -818 95 -30 114 -27
136 18 113 231 183 425 209 581 32 186 16 425 -40 601 -25 81 -25 105 1 44 78
-184 109 -337 109 -534 0 -229 -27 -352 -149 -685 -97 -265 -109 -323 -102
-484 7 -179 58 -323 174 -498 69 -104 221 -273 245 -273 28 0 94 48 159 117
69 72 103 117 160 213 93 155 93 190 0 374 -144 285 -201 506 -200 776 0 206
14 231 22 40 7 -182 24 -274 83 -448 34 -100 163 -368 203 -421 l18 -23 21 83
c42 170 46 213 47 594 0 421 3 443 79 600 40 82 122 193 133 181 3 -3 -11 -25
-31 -49 -120 -146 -165 -383 -132 -691 20 -187 20 -314 0 -486 -20 -182 -62
-351 -120 -494 -6 -16 1 -14 37 11 72 50 210 120 276 142 69 22 214 46 235 38
7 -2 -14 -9 -47 -16 -135 -26 -309 -107 -425 -197 -64 -49 -153 -140 -235
-239 -31 -38 -87 -101 -123 -138 l-66 -69 24 -19 c14 -10 63 -44 110 -76 47
-32 125 -86 174 -120 49 -35 93 -63 97 -63 5 0 24 14 43 30 105 93 304 209
646 377 425 210 624 316 666 357 47 47 93 236 94 382 1 288 -157 516 -444 641
-30 13 -42 22 -31 23 11 0 52 -15 90 -33 181 -87 299 -194 364 -329 61 -127
75 -191 75 -348 0 -74 -6 -161 -13 -193 -7 -32 -11 -61 -8 -63 10 -10 180 136
243 208 73 83 163 253 190 358 23 92 21 237 -5 321 -28 88 -117 234 -396 650
-262 388 -336 524 -363 662 l-17 84 -104 7 c-57 3 -510 6 -1006 6 l-902 0 -6
-41 c-3 -22 -8 -43 -11 -46 -11 -11 -82 17 -131 52 l-50 35 -454 0 c-428 0
-453 -1 -445 -17 46 -105 56 -159 51 -263 -6 -113 -22 -180 -44 -180 -8 0 -49
35 -92 78 -97 96 -137 173 -154 297 l-11 85 -548 0 -548 0 0 -960z m1704 773
c15 -88 -35 -216 -109 -280 -46 -40 -121 -80 -131 -70 -4 4 -9 31 -12 60 -8
103 62 227 167 292 30 19 61 35 67 35 7 0 15 -17 18 -37z m1538 -140 c59 -45
122 -136 143 -206 26 -88 12 -287 -20 -287 -19 0 -98 64 -129 104 -78 102
-107 250 -72 369 9 32 19 57 23 57 3 0 28 -17 55 -37z m994 -8 c70 -16 114
-34 114 -47 0 -5 -21 -31 -47 -59 -68 -73 -171 -121 -271 -127 -77 -4 -160 8
-217 32 l-30 12 58 61 c67 71 133 109 220 128 81 17 100 18 173 0z m-1923
-125 c75 -28 164 -110 200 -184 43 -87 41 -89 -57 -84 -107 6 -193 45 -259
118 -48 53 -101 155 -91 172 11 17 142 3 207 -22z m-1088 -24 c60 -29 121 -79
112 -93 -4 -6 -35 -21 -69 -34 -94 -36 -185 -33 -269 8 -70 35 -115 75 -104
92 8 15 69 40 120 51 59 13 153 2 210 -24z m1241 -281 c27 -8 58 -20 68 -28
17 -12 14 -16 -39 -52 -51 -34 -67 -39 -132 -43 -63 -4 -82 -1 -124 18 -27 13
-49 27 -49 31 0 5 16 21 35 36 64 51 151 65 241 38z m1823 -94 c67 -84 95
-202 71 -302 -14 -61 -46 -129 -59 -129 -19 0 -82 85 -101 137 -35 93 -22 234
27 310 20 31 26 29 62 -16z m-2866 -66 c62 -25 148 -84 144 -100 -5 -17 -109
-64 -167 -75 -64 -13 -147 -5 -208 18 -43 17 -152 91 -152 104 0 13 127 69
176 78 66 11 137 3 207 -25z m555 -43 c33 -59 45 -127 32 -186 -11 -51 -52
-126 -70 -126 -16 0 -58 84 -65 130 -3 25 -1 67 4 93 11 48 54 127 69 127 5 0
18 -17 30 -38z m1950 -7 c23 -9 42 -23 42 -30 0 -22 -114 -121 -172 -148 -76
-36 -175 -50 -258 -35 -65 10 -120 32 -120 46 0 36 88 119 158 149 108 46 261
54 350 18z m609 -139 c-8 -83 -55 -158 -119 -192 -48 -25 -58 -19 -58 34 0 94
88 212 158 212 24 0 25 -2 19 -54z m-2937 12 c-1 -26 -38 -94 -66 -120 -59
-55 -207 -99 -220 -65 -7 19 26 84 62 121 42 42 120 76 177 76 31 0 47 -4 47
-12z m3345 -302 c10 -67 -16 -145 -66 -194 -40 -41 -75 -60 -87 -48 -15 16 -5
132 16 172 22 43 96 114 118 114 7 0 16 -19 19 -44z m-445 -188 c61 -28 103
-64 97 -81 -2 -7 -34 -28 -72 -47 -64 -33 -74 -35 -164 -35 -87 0 -102 3 -162
32 -70 34 -105 65 -94 83 8 13 78 49 130 67 66 21 199 12 265 -19z m-3485
-133 c123 -59 233 -201 269 -347 6 -26 4 -28 -27 -28 -47 0 -139 26 -198 56
-97 49 -183 158 -219 281 -20 66 -11 77 61 70 33 -4 84 -18 114 -32z m708 -84
c29 -60 32 -74 32 -161 0 -87 -3 -101 -32 -160 -17 -36 -39 -74 -48 -85 -16
-20 -16 -20 -36 5 -47 58 -73 132 -77 221 -5 99 10 156 59 234 29 46 30 47 50
29 11 -9 34 -47 52 -83z m2917 67 c0 -33 -64 -121 -108 -149 -74 -47 -172 -66
-172 -34 0 58 77 145 155 175 58 22 125 26 125 8z m-1864 -194 c11 -45 -2
-147 -26 -194 -40 -80 -160 -184 -190 -165 -6 3 -10 39 -10 78 0 59 5 83 29
133 31 65 85 125 141 155 46 24 48 24 56 -7z m-836 -101 c0 -81 -75 -185 -156
-219 -60 -25 -68 -20 -61 35 3 27 15 67 26 89 33 66 117 127 179 131 7 1 12
-13 12 -36z m-1506 -120 c76 -104 86 -257 26 -379 -17 -36 -37 -63 -43 -61 -7
2 -27 25 -45 51 -74 110 -83 260 -22 374 18 34 37 62 41 62 5 0 24 -21 43 -47z
m3687 -75 c56 -19 104 -56 127 -97 34 -61 31 -64 -47 -59 -88 7 -150 40 -186
102 -14 23 -25 48 -25 54 0 16 86 16 131 0z m-350 -130 c62 -29 156 -109 146
-125 -13 -22 -110 -46 -180 -45 -59 0 -80 5 -142 36 -67 33 -135 92 -135 117
0 10 33 25 85 40 56 15 167 4 226 -23z m-2779 -127 c28 -58 32 -77 33 -151 0
-97 -27 -184 -74 -241 l-28 -33 -30 45 c-91 132 -89 325 4 447 24 32 26 33 44
16 11 -10 34 -47 51 -83z m2497 35 c58 -31 102 -101 115 -185 l7 -44 -30 6
c-46 9 -108 53 -135 95 -29 43 -52 122 -43 145 7 18 25 14 86 -17z m-1876
-158 c57 -31 117 -94 117 -123 0 -7 -17 -15 -37 -19 -108 -17 -189 7 -260 79
-29 28 -53 59 -53 68 0 10 13 20 33 26 53 17 134 4 200 -31z m655 -65 c-8
-113 -67 -202 -166 -253 -23 -12 -49 -20 -57 -16 -36 13 -6 157 48 228 35 45
128 108 160 108 18 0 19 -6 15 -67z m-1058 -35 c-1 -100 -83 -197 -197 -232
-21 -7 -23 -4 -23 36 0 91 75 189 173 225 47 17 47 17 47 -29z m1083 -199 c20
-5 37 -14 37 -18 0 -17 -78 -79 -115 -91 -41 -13 -131 -8 -149 10 -13 13 61
83 105 97 45 14 76 15 122 2z m-2105 -83 c99 -50 158 -146 169 -272 7 -84 5
-86 -62 -55 -52 24 -118 90 -147 149 -26 53 -40 202 -19 202 7 0 33 -11 59
-24z m675 -102 c23 -7 22 -17 -9 -54 -30 -36 -83 -64 -136 -74 -34 -6 -112 5
-126 18 -3 4 10 22 29 42 69 73 149 95 242 68z m-543 -467 c-15 -73 -35 -112
-81 -162 -43 -46 -122 -95 -155 -95 -14 0 -16 9 -12 63 11 134 89 237 213 283
28 10 31 9 38 -15 4 -14 3 -47 -3 -74z m718 -337 c17 -7 32 -16 32 -20 0 -4
-21 -31 -46 -59 -60 -67 -154 -114 -239 -119 -74 -5 -175 14 -175 32 0 21 79
104 124 131 88 52 214 66 304 35z"/>
<path d="M4393 12375 c-12 -8 -33 -46 -48 -85 -30 -77 -50 -95 -89 -80 -52 19
-44 103 13 132 50 25 49 28 -9 28 -42 0 -50 -3 -41 -13 8 -10 7 -17 -1 -25 -6
-6 -12 -33 -12 -60 -1 -63 22 -99 70 -108 50 -9 83 18 114 95 28 69 53 94 84
85 73 -21 54 -142 -24 -159 -48 -11 -35 -25 24 -25 51 0 53 1 54 28 0 15 3 39
7 54 11 41 -3 97 -30 124 -28 28 -79 32 -112 9z"/>
<path d="M4510 12095 l0 -25 -240 0 -240 0 0 -39 c0 -44 8 -71 21 -71 5 0 9
11 9 24 0 13 7 27 16 30 20 8 382 8 412 0 12 -4 22 -14 22 -25 0 -10 5 -21 10
-24 6 -4 10 23 10 74 0 47 -4 81 -10 81 -5 0 -10 -11 -10 -25z"/>
<path d="M4517 11928 c-4 -10 -9 -25 -12 -33 -4 -13 -39 -15 -240 -15 l-235 0
0 -42 c0 -24 4 -50 10 -58 9 -15 9 -16 25 35 4 13 37 15 220 15 183 0 216 -2
220 -15 15 -47 19 -48 23 -8 5 63 -2 142 -11 121z"/>
<path d="M4518 11748 c-5 -10 -10 -25 -13 -33 -4 -12 -30 -15 -153 -15 l-149
0 5 -52 c5 -55 22 -92 22 -47 0 43 16 49 133 49 127 0 147 -7 147 -55 0 -38
-13 -55 -104 -135 l-58 -52 -59 58 c-33 32 -59 66 -59 76 0 10 -4 18 -10 18
-5 0 -10 -25 -10 -55 0 -30 5 -55 10 -55 6 0 10 5 10 10 0 23 29 6 83 -48 31
-32 57 -60 57 -62 0 -3 -76 -4 -170 -2 l-170 3 0 -33 c0 -45 10 -79 21 -72 5
3 9 14 9 25 0 19 7 19 223 17 222 -3 222 -3 225 -25 2 -13 8 -23 13 -23 5 0 9
34 9 76 0 47 -4 73 -10 69 -5 -3 -10 -13 -10 -21 0 -11 -14 -14 -59 -14 -33 0
-63 4 -66 10 -5 9 51 66 98 99 16 11 21 11 28 0 16 -27 19 1 17 152 -2 85 -6
146 -10 137z"/>
<path d="M4084 11686 c-8 -21 13 -46 38 -46 30 0 21 54 -10 58 -13 2 -25 -3
-28 -12z"/>
<path d="M4320 11150 c-15 -16 -42 -66 -60 -110 -36 -89 -57 -110 -110 -110
-57 1 -90 39 -90 104 0 45 38 90 93 109 l42 15 -75 1 c-44 0 -70 -3 -62 -8 11
-7 11 -15 -2 -46 -37 -89 -10 -192 59 -221 91 -38 156 0 200 116 37 97 57 120
105 120 115 0 136 -161 28 -210 -24 -11 -51 -20 -60 -20 -10 0 -18 -4 -18 -10
0 -6 32 -10 75 -10 43 0 75 4 75 10 0 6 -6 10 -14 10 -10 0 -7 12 10 47 41 80
27 163 -35 216 -26 21 -43 27 -83 27 -43 0 -54 -4 -78 -30z"/>
<path d="M4450 10621 c0 -6 9 -15 19 -21 45 -24 31 -84 -27 -114 -23 -12 -30
-12 -46 0 -11 7 -43 21 -73 29 -46 14 -54 20 -60 45 -10 55 -23 31 -23 -45 0
-43 4 -75 10 -75 6 0 10 8 10 19 0 32 24 43 67 32 41 -12 70 -27 63 -34 -3 -2
-26 -16 -53 -31 -26 -15 -57 -40 -68 -56 l-22 -29 -21 32 c-30 44 -85 62 -131
43 -40 -17 -55 -42 -55 -91 0 -108 117 -162 195 -89 l28 26 24 -31 c49 -62
135 -80 198 -41 67 41 74 152 13 217 l-21 22 32 36 c35 40 40 78 15 113 -17
25 -74 58 -74 43z m29 -223 c70 -74 2 -189 -102 -175 -45 6 -90 35 -95 62 -5
23 41 70 103 106 60 35 68 35 94 7z m-275 -39 c34 -27 33 -51 -5 -83 -55 -47
-139 -26 -139 35 0 64 86 93 144 48z"/>
<path d="M4393 9905 c-12 -8 -33 -46 -48 -85 -28 -72 -50 -95 -82 -83 -48 18
-57 80 -18 118 13 14 31 25 39 25 8 0 18 5 21 10 4 6 -14 10 -46 10 -39 0 -50
-3 -42 -11 8 -8 7 -21 -4 -47 -28 -67 5 -138 70 -149 32 -5 40 -2 66 26 16 17
37 54 46 82 20 59 51 84 87 70 66 -25 42 -140 -32 -156 -48 -11 -35 -24 24
-24 51 0 53 2 54 27 0 15 3 39 7 54 11 41 -3 97 -30 124 -28 28 -79 32 -112 9z"/>
<path d="M4251 9605 c-80 -68 -55 -199 46 -241 44 -19 125 -18 167 2 68 33 97
135 56 201 -22 36 -67 70 -78 58 -4 -4 -1 -10 6 -12 44 -16 71 -87 53 -136
-13 -34 -66 -67 -108 -67 -32 0 -33 1 -33 43 0 23 -3 72 -7 110 l-6 67 -33 0
c-20 0 -44 -9 -63 -25z m83 -77 c3 -29 6 -68 6 -87 0 -32 -1 -33 -32 -27 -49
10 -76 32 -83 70 -11 56 21 94 81 95 18 1 22 -6 28 -51z"/>
<path d="M4200 9298 c0 -13 7 -33 15 -45 13 -19 13 -25 0 -57 -19 -46 -19 -70
2 -113 30 -65 111 -81 165 -34 l34 29 21 -24 c24 -27 50 -31 78 -10 17 12 22
11 42 -10 28 -30 54 -30 90 0 24 21 28 32 31 94 7 117 -32 186 -103 186 -53 0
-66 -20 -76 -115 -13 -122 -16 -131 -41 -127 -19 3 -24 13 -33 72 -15 90 -45
120 -114 114 -25 -3 -53 -6 -61 -9 -11 -3 -15 5 -15 31 0 25 -5 36 -17 38 -13
3 -18 -3 -18 -20z m450 -70 c11 -24 20 -57 20 -74 0 -92 -60 -144 -110 -94
-17 17 -19 29 -14 82 9 103 20 128 55 128 26 0 33 -6 49 -42z m-265 -43 c41
-41 28 -86 -31 -105 -93 -31 -176 48 -114 110 31 31 113 28 145 -5z"/>
<path d="M4494 8964 c4 -11 8 -21 8 -24 2 -28 -6 -30 -121 -30 -111 0 -122 -2
-147 -23 -23 -20 -28 -32 -28 -75 -1 -37 5 -58 20 -79 25 -33 69 -52 85 -36
15 15 -16 43 -47 43 -17 0 -27 8 -34 26 -14 37 -12 52 10 74 23 23 108 29 115
8 2 -7 11 -39 20 -72 27 -99 88 -134 140 -81 33 32 33 81 0 129 -19 27 -21 36
-9 36 20 0 38 43 30 74 -3 14 -16 31 -28 37 -19 10 -20 9 -14 -7z m-9 -130
c33 -36 33 -78 0 -100 -47 -31 -87 5 -109 99 -6 26 -5 27 39 27 37 0 51 -5 70
-26z"/>
<path d="M4507 8600 c-5 -19 -14 -20 -155 -20 l-150 0 6 -47 c5 -51 12 -66 19
-45 13 34 35 42 121 42 48 0 96 -3 108 -6 48 -13 72 -114 36 -147 -15 -14 -42
-17 -149 -17 -71 0 -132 -2 -134 -4 -2 -3 -3 -25 -1 -50 4 -48 16 -60 25 -26
5 18 14 20 94 20 106 1 169 12 191 34 27 27 23 126 -6 165 -22 30 -22 31 -2
31 17 0 20 6 20 45 0 46 -14 61 -23 25z"/>
<path d="M4200 8214 c0 -15 7 -35 15 -44 13 -15 13 -21 -2 -58 -13 -35 -14
-49 -5 -80 26 -87 119 -117 180 -58 29 27 31 27 41 8 15 -28 58 -36 86 -18 21
14 24 14 37 -4 7 -10 25 -22 40 -26 22 -5 33 0 58 24 28 28 30 36 30 102 0 81
-16 128 -55 158 -34 27 -65 28 -95 4 -18 -15 -24 -34 -32 -112 -10 -95 -19
-120 -44 -120 -15 0 -20 15 -30 85 -5 35 -15 58 -36 78 -25 25 -34 28 -76 25
-26 -2 -54 -6 -62 -9 -11 -3 -15 5 -15 31 0 25 -5 36 -17 38 -14 3 -18 -3 -18
-24z m451 -68 c45 -98 0 -205 -75 -177 -37 15 -40 37 -20 168 11 72 64 77 95
9z m-259 -47 c43 -57 -18 -118 -103 -104 -64 11 -91 73 -49 115 17 17 31 20
77 18 47 -3 59 -7 75 -29z"/>
<path d="M4507 7870 c-5 -19 -14 -20 -124 -20 -93 0 -124 -4 -141 -16 -51 -36
-52 -123 -1 -173 16 -16 29 -31 29 -33 0 -2 -12 -3 -27 -3 -16 0 -29 -3 -30
-7 -8 -22 -2 -98 7 -98 6 0 10 6 10 14 0 36 29 46 133 46 127 0 147 -5 147
-36 0 -13 5 -24 10 -24 6 0 10 32 10 75 0 43 -4 75 -10 75 -5 0 -10 -9 -10
-20 0 -19 -7 -20 -106 -20 l-106 0 -35 35 c-29 29 -34 40 -31 72 4 52 30 63
150 63 109 0 128 -4 128 -30 0 -11 5 -22 10 -25 6 -4 10 22 10 69 0 72 -11
100 -23 56z"/>
<path d="M4490 7497 c0 -5 4 -16 9 -26 18 -33 -1 -39 -126 -43 -100 -2 -124
-6 -141 -21 -42 -38 -35 -132 12 -180 18 -18 61 -23 70 -9 10 16 -13 35 -42
34 -24 0 -33 5 -43 30 -19 47 -3 80 46 90 69 15 76 10 97 -67 23 -84 49 -115
94 -115 69 0 97 98 44 155 l-21 22 26 17 c32 21 32 56 0 93 -13 15 -25 24 -25
20z m-1 -153 c37 -47 19 -104 -32 -104 -39 0 -56 22 -75 93 l-10 37 48 0 c41
0 52 -4 69 -26z"/>
<path d="M4380 7132 c0 -6 18 -13 40 -17 73 -12 85 -30 88 -139 l4 -96 -218 2
-219 3 -5 30 c-10 57 -22 25 -23 -65 -2 -84 8 -117 20 -69 9 33 44 39 221 38
190 -1 216 -5 220 -37 2 -12 8 -22 13 -22 5 0 9 78 9 185 l0 185 -22 0 c-13 0
-47 3 -75 6 -35 5 -53 3 -53 -4z"/>
<path d="M4219 6499 c-30 -30 -6 -88 45 -106 18 -6 15 -8 -17 -13 -21 -3 -38
-8 -37 -12 0 -5 0 -28 0 -53 0 -25 5 -45 10 -45 6 0 10 6 10 14 0 37 28 46
140 46 126 0 140 -4 140 -36 0 -13 5 -24 10 -24 6 0 10 39 10 97 0 59 -4 93
-9 88 -5 -6 -11 -23 -13 -40 l-3 -30 -80 -3 c-93 -4 -141 8 -179 43 -29 27
-28 46 2 38 26 -6 48 22 32 42 -17 21 -36 19 -61 -6z"/>
<path d="M4281 6212 c-52 -26 -76 -65 -76 -122 0 -52 19 -87 68 -124 32 -24
121 -33 169 -17 118 39 131 196 22 258 -49 28 -134 31 -183 5z m206 -68 c22
-17 28 -29 28 -59 0 -57 -35 -79 -133 -83 -61 -2 -84 1 -112 16 -65 36 -64
108 3 138 49 22 178 15 214 -12z"/>
<path d="M4100 5961 l-55 -6 -3 -177 c-2 -150 0 -178 12 -178 8 0 16 10 18 23
l3 22 215 0 215 0 3 -22 c2 -13 8 -23 13 -23 5 0 9 41 9 90 0 53 -4 90 -10 90
-5 0 -10 -11 -10 -25 0 -36 -29 -46 -128 -43 l-87 3 -3 38 c-4 52 19 87 58 87
16 0 32 5 35 10 4 6 -30 10 -95 10 -65 0 -99 -4 -95 -10 3 -5 16 -10 29 -10
34 0 46 -19 46 -77 l0 -53 -100 0 -100 0 0 85 c0 105 11 132 62 147 21 6 38
15 38 20 0 4 -3 7 -7 6 -5 -1 -33 -4 -63 -7z"/>
<path d="M4515 5345 c-3 -8 -7 -22 -10 -30 -4 -13 -39 -15 -240 -15 l-235 0 1
-37 c0 -21 4 -47 9 -58 8 -21 9 -21 25 30 4 13 35 15 222 13 218 -3 218 -3
221 -25 2 -13 8 -23 13 -23 5 0 9 36 9 80 0 76 -5 98 -15 65z"/>
<path d="M4285 5142 c-77 -36 -103 -115 -63 -191 30 -58 74 -81 153 -81 75 0
124 23 147 70 51 102 -17 205 -144 216 -39 4 -64 0 -93 -14z m175 -58 c103
-41 69 -144 -52 -158 -124 -14 -216 47 -178 119 27 51 149 71 230 39z"/>
<path d="M4282 4793 c-73 -36 -99 -112 -62 -188 28 -58 77 -85 156 -85 130 0
200 101 144 209 -36 71 -158 104 -238 64z m183 -57 c59 -25 73 -85 29 -127
-21 -20 -38 -24 -103 -27 -54 -3 -88 1 -114 12 -71 29 -75 105 -7 138 43 22
147 24 195 4z"/>
<path d="M4510 4450 c0 -19 -7 -20 -102 -20 -138 0 -175 -11 -195 -57 -19 -48
-10 -94 29 -138 l30 -35 -121 0 -121 0 0 -50 c0 -53 14 -67 24 -25 l6 25 223
-2 c213 -3 222 -4 225 -23 2 -11 8 -24 13 -30 5 -5 9 22 9 68 0 73 -11 101
-23 57 -5 -18 -14 -20 -91 -20 -98 0 -144 14 -169 53 -25 38 -22 93 4 108 21
11 233 14 250 3 5 -3 9 -14 9 -25 0 -10 5 -19 10 -19 6 0 10 32 10 75 0 43 -4
75 -10 75 -5 0 -10 -9 -10 -20z"/>
<path d="M4440 4052 c0 -4 9 -13 20 -19 51 -33 62 -116 20 -161 -39 -42 -135
-49 -202 -16 -79 40 -77 147 3 148 27 1 34 5 34 21 0 35 -48 32 -78 -5 -55
-65 -42 -151 31 -207 38 -29 51 -33 105 -33 76 0 123 23 149 71 34 63 16 148
-40 188 -32 22 -42 26 -42 13z"/>
<path d="M4340 3686 c-28 -15 -55 -60 -89 -148 -13 -31 -31 -64 -41 -73 -21
-19 -78 -22 -107 -6 -48 25 -55 122 -12 167 12 13 40 30 63 38 l41 14 -75 1
c-47 0 -70 -3 -61 -8 12 -8 11 -15 -3 -50 -47 -118 12 -231 121 -231 61 0 102
39 138 132 16 40 39 83 51 95 48 48 137 17 150 -52 13 -73 -35 -140 -111 -152
-61 -10 -38 -23 40 -23 43 0 75 4 75 10 0 6 -6 10 -14 10 -10 0 -7 12 10 47
41 80 27 163 -35 216 -37 31 -98 36 -141 13z"/>
</g>
</svg>
