<svg height="499pt" preserveAspectRatio="xMidYMid meet" viewBox="0 0 499 499" width="499pt" xmlns="http://www.w3.org/2000/svg"><path d="m1580 3634v-295l25-33c14-18 28-53 31-79 7-50 0-56-37-37-17 10-19 7-19-24 0-30 3-34 34-40 18-4 41-15 50-25 15-17 16-19 1-25-9-3-32-6-51-6h-34v-75c0-69 2-76 23-84 12-5 30-18 40-29 18-20 18-21-2-31-11-6-29-11-40-11-21 0-21-3-21-350v-350h183l182-1-50-24c-126-61-225-174-274-309-33-94-41-270-17-367 52-204 191-333 406-375 149-29 384-3 499 56l41 20v275 275h-230-230v-95-95h110 110v-110c0-133 0-133-140-134-84-1-101 2-152 27-74 36-133 103-156 176-26 85-22 229 8 306 33 84 115 164 196 190 102 33 303 17 394-30 29-15 30-15 30 5 0 44-42 213-67 266-55 120-68 252-37 369 8 33 13 74 11 90-7 43-44 136-66 164l-18 24-74-56c-100-74-168-107-223-107-36 0-54 7-102 44-67 50-136 111-114 100 8-4 49-31 92-61 42-29 79-53 82-53s-3 15-14 33c-22 36-25 63-10 103 10 26 11 26 30 9 29-27 43-78 31-119-11-44-5-45 64-12 50 24 92 54 167 121 37 34 39 38 24 54-30 33-88 45-167 34-137-18-248 21-360 127l-64 61 75-56c124-92 235-121 355-92l60 14-1 49c-2 61-31 121-85 175-35 35-36 38-12 25 58-30 116-116 132-196 11-53 13-56 67-84 60-32 104-80 154-169l32-57 17 22c9 13 23 33 31 45s30 39 47 61l33 40-41 26c-62 42-164 152-197 215-40 76-54 147-42 212 6 29 9 53 8 54-2 1-17 7-34 14-65 26-170 157-219 274-23 56-11 45 28-26 45-79 109-152 166-189 76-47 89-38 129 92 29 93 34 146 19 218-18 80-3 67 19-18s14-158-32-291c-43-125-47-192-15-263 28-64 91-146 111-146 28 0 103 93 115 141 4 18-3 44-24 85-36 72-61 171-60 239l1 50 9-60c11-75 34-146 67-208 25-46 26-47 35-25 5 13 11 90 13 172 4 132 7 155 28 203 14 29 27 53 30 53s-5-21-16-47c-19-43-22-67-23-223-1-138-5-184-18-219-9-24-17-45-17-46s25 11 56 27c31 15 69 28 83 27 21 0 18-3-15-13-59-19-121-65-182-134l-52-61 59-40c33-23 62-41 64-41 3 0 29 16 58 36 29 19 124 72 211 115 96 49 162 89 169 102 7 12 14 51 16 87 4 55 1 72-19 110-14 25-44 60-67 78-51 38-46 42 9 7 66-42 94-94 100-189l5-81 43 43c54 54 81 113 82 175 0 64-12 88-124 255-53 79-104 166-113 193l-18 49h-312c-202 0-313-4-313-10 0-5-9-10-19-10-11 0-23 5-26 10-4 6-67 10-156 10h-150l12-21c11-22 7-104-6-117-12-12-73 67-79 103l-7 35h-174-175zm550 241c0-29-28-83-48-94-36-19-45-14-38 21 11 54 86 117 86 73zm530-144c0-59-10-69-37-38-32 34-43 62-43 105 0 55 10 59 47 18 28-30 33-43 33-85zm274 99c35-13 25-34-30-60-41-20-86-21-117-3-12 7 24 44 58 59 36 16 56 17 89 4zm-582-57c29-26 42-64 26-75-10-6-10-8 2-8s11-3-3-17c-16-17-80-24-93-10-12 12 18 37 45 37 24 1 24 2-9 16-37 16-69 50-70 73 0 20 76 8 102-16zm-357-3c17-19 17-20-11-30-36-14-86-5-108 19-21 23-11 29 55 30 34 1 51-4 64-19zm971-156c6-32 7-33 30-17 23 15 24 14 24-9 0-29-26-68-46-68-8 0-14 4-14 10 0 5-7 7-15 4-11-4-20 5-31 32-13 31-14 45-4 77 11 37 12 38 30 22 11-10 22-33 26-51zm-909 20c13-8 21-19 18-24-4-6-1-10 4-10 18 0 12-29-9-50s-70-28-70-10c0 6 9 19 20 30l20 20h-35c-33 0-95 23-95 36 0 3 15 11 33 19 36 17 79 12 114-11zm157-10c16-41-6-109-27-87-9 8-9 88 0 96 11 11 20 8 27-9zm624 1c4-4-8-20-26-36-25-23-42-29-76-29-86 0-95 27-22 61 39 19 108 21 124 4zm312-143c0-17-10-38-25-52l-25-23v33c0 31 23 70 42 70 4 0 8-13 8-28zm-145-46c36-15 45-30 23-39-8-3-6-6 5-6 40-2 5-54-45-66-32-8-35 1-12 33 15 21 14 22-19 22-20 0-45 9-58 19l-24 20 35 15c44 19 53 19 95 2zm-1059-80c44-43 58-86 29-86-26 0-94 39-105 59-5 11-14 31-20 45-9 24-8 26 22 26 23 0 41-11 74-44zm194-37v-38l27 14c15 8 29 12 31 10 11-11-11-56-34-71-36-24-69-6-85 45-10 35-10 46 6 82l19 41 18-22c10-13 18-39 18-61zm325 1c16-26-35-110-67-110-20 0-6 65 19 92 29 30 38 34 48 18zm-721-111c5-28-15-99-29-99-9 0-35 66-35 89 0 11 5 32 10 47 10 25 11 26 29 10 10-9 21-31 25-47zm1174 4 27-28-28-3c-30-4-67 21-67 45 0 23 40 14 68-14zm-128-28c17-9 30-22 30-29 0-19-50-29-83-17-25 10-26 9-16-16 12-33 5-40-26-23-34 18-42 52-19 79 22 25 72 28 114 6zm-880-81c0-33 12-45 25-24 10 16 35 12 35-6 0-8-13-29-30-45l-30-30-30 21c-38 27-47 73-25 126l16 39 20-24c10-13 19-38 19-57zm198 0c31-22 28-44-7-44-28 0-81 33-81 51 0 15 64 10 88-7zm197-21c-3-16-14-36-22-45-15-17-14-18 10-18 29 0 34-9 15-28-21-21-64-14-75 11-18 39 20 107 60 107 16 0 18-5 12-27zm-640-105c27-24 47-98 27-98-24 0-63 46-69 83-7 43 4 47 42 15zm195-26c0-18-26-32-59-32s-34 0-16 20c17 19 75 28 75 12zm-170-138c0-15-12-38-29-55-32-32-67-40-57-13 3 9 6 21 6 28 0 19 46 66 65 66 9 0 15-9 15-26zm227-120c6-18-61-54-101-54-46 0-48 23-3 50 34 22 98 24 104 4z" transform="matrix(.1 0 0 -.1 0 499)"/></svg>