<?xml version="1.0" encoding="utf-8"?>
<!-- Svg Vector Icons : http://www.onlinewebfonts.com/icon -->
<!DOCTYPE svg PUBLIC "-//W3C//DTD SVG 1.1//EN" "http://www.w3.org/Graphics/SVG/1.1/DTD/svg11.dtd">
<svg version="1.1" xmlns="http://www.w3.org/2000/svg" xmlns:xlink="http://www.w3.org/1999/xlink" x="0px" y="0px" viewBox="0 0 1000 1000" enable-background="new 0 0 1000 1000" xml:space="preserve">
<metadata> Svg Vector Icons : http://www.onlinewebfonts.com/icon </metadata>
<g><path d="M774.9,364.8c-20.3-12.8-43-19.2-68.2-19.2c-35.8,0-66.7,12.3-92.5,36.9c-25.8,24.6-38.8,65.7-38.8,123.3c0,46.1,12.4,82.4,37.2,109c24.8,26.5,55.9,39.8,93.3,39.8c38.1,0,69.5-13.4,94.1-40.2s36.9-64.8,36.9-114.1c0-31.2-5.3-58.3-15.8-81.6C810.6,395.6,795.2,377.6,774.9,364.8z"/><path d="M500,10C229.4,10,10,229.4,10,500c0,270.6,219.4,490,490,490c270.6,0,490-219.4,490-490C990,229.4,770.6,10,500,10z M463.9,638.2c-24.9,19.8-50.6,34.8-77,44.8c-26.5,10-53.6,15-81.4,15c-37.6,0-71.7-8.1-102.4-24.2c-30.7-16.1-53.9-39.3-69.6-69.8C117.8,573.6,110,539.5,110,502c0-37.2,7.8-72,23.3-104.3c15.6-32.3,38-56.2,67.2-71.9c29.2-15.7,62.9-23.5,101-23.5c27.7,0,52.7,4.5,75,13.4c22.4,9,39.9,21.4,52.6,37.5c12.7,16,22.4,36.9,29,62.6l-45.7,12.5c-5.7-19.5-12.9-34.8-21.4-45.9c-8.5-11.1-20.7-20.1-36.5-26.7c-15.8-6.7-33.4-10.1-52.7-10.1c-23.1,0-43.2,3.5-60,10.6c-16.9,7-30.5,16.3-40.8,27.8c-10.4,11.5-18.4,24.1-24.2,37.8c-9.7,23.7-14.6,49.3-14.6,77c0,34.1,5.9,62.6,17.6,85.6c11.8,23,28.9,40,51.3,51.2c22.4,11.1,46.3,16.7,71.5,16.7c21.9,0,43.3-4.2,64.2-12.6c20.9-8.5,36.7-17.5,47.5-27v-71.3H301.8v-44.9l162.1-0.3V638.2z M799.1,674.3c-28.7,15.8-59.7,23.6-92.9,23.6c-36,0-68.2-8.7-96.6-26.1c-28.4-17.4-49.9-41.1-64.5-71.3c-14.6-30.1-21.9-62-21.9-95.5c0-63.5,17.1-113.2,51.2-149.2C608.4,320,652.5,302,706.4,302c35.3,0,67.2,8.4,95.5,25.3c28.3,16.9,50,40.4,64.8,70.6c14.9,30.2,22.3,64.4,22.3,102.7c0,38.8-7.8,73.5-23.5,104.1C850,635.4,827.8,658.6,799.1,674.3z"/></g>
</svg>